<svg width="33" height="33" viewBox="0 0 33 33" fill="none" xmlns="http://www.w3.org/2000/svg">
<rect x="0.502839" y="0.502839" width="31.9582" height="31.9582" rx="2.84942" stroke="#273751" stroke-width="1.00568"/>
<path d="M28.3138 6.77815C27.6942 6.87503 27.0741 7.09756 26.4545 7.44612C25.8541 7.7754 25.2441 8.32772 24.6244 9.10237L20.2328 14.5907L27.0072 24.4129C27.3171 24.8777 27.6459 25.2463 27.9945 25.5174C28.3625 25.7885 28.8274 26.0111 29.389 26.1854V26.7664C28.8661 26.7277 28.2363 26.7088 27.5004 26.7088C26.7645 26.6895 26.1157 26.6795 25.5541 26.6795C25.2055 26.6795 24.7693 26.6895 24.2465 26.7088C23.743 26.7088 23.104 26.7277 22.3295 26.7664V26.1854C23.046 26.1466 23.4821 26.0304 23.6371 25.8367C23.8111 25.643 23.7428 25.3231 23.433 24.8778L19.2211 18.3416C18.8725 17.7994 18.5625 17.3921 18.2914 17.1209C18.0203 16.8305 17.7391 16.6467 17.4486 16.5692C17.1849 16.4813 16.8651 16.4262 16.4896 16.4022V23.6873C16.4896 24.3844 16.5482 24.9071 16.6644 25.2557C16.7806 25.6043 17.0031 25.8367 17.3324 25.953C17.6616 26.0691 18.1456 26.1466 18.7845 26.1854V26.7664C18.3198 26.7277 17.7293 26.7088 17.0131 26.7088C16.3158 26.6894 15.5987 26.6795 14.8627 26.6795C14.0493 26.6795 13.2843 26.6895 12.5677 26.7088C11.8707 26.7088 11.2993 26.7277 10.8539 26.7664V26.1854C11.5122 26.1466 12.0061 26.0691 12.3353 25.953C12.6645 25.8367 12.8772 25.6043 12.974 25.2557C13.0902 24.9071 13.1488 24.3844 13.1488 23.6873V18.326H11.5638C9.97577 18.326 8.66843 18.1224 7.64197 17.7157C6.61543 17.3089 5.80197 16.7855 5.20154 16.1463C4.60132 15.488 4.18495 14.7813 3.95251 14.0262C3.70078 13.2516 3.57464 12.5153 3.57458 11.8182C3.57458 10.1332 4.18454 8.75747 5.40466 7.69221C6.62489 6.62694 8.59817 6.23323 11.058 6.23323L11.7689 6.24104C11.921 6.2435 12.0893 6.24711 12.2738 6.25081C12.3652 6.25233 12.4628 6.2518 12.5677 6.25471C13.2843 6.27408 14.0493 6.28401 14.8627 6.28401C15.5987 6.28401 16.3158 6.27408 17.0131 6.25471C17.7293 6.23536 18.3198 6.21646 18.7845 6.1971V6.77815C18.1456 6.79754 17.6616 6.87505 17.3324 7.01057C17.0032 7.12677 16.7807 7.35927 16.6644 7.70784C16.5482 8.03711 16.4896 8.56054 16.4896 9.27718V15.7782C17.2535 15.7447 17.912 15.5642 18.4652 15.2323C19.0656 14.8836 19.6278 14.4098 20.1508 13.8094L22.5619 10.7586C23.2398 9.92577 23.6758 9.21859 23.8695 8.63753C24.0631 8.03727 24.0144 7.58217 23.724 7.27229C23.4335 6.96241 22.8911 6.79753 22.097 6.77815V6.1971C22.5038 6.21646 22.9011 6.23535 23.2885 6.25471C23.695 6.25472 24.1016 6.26465 24.5082 6.28401H25.7572C26.2801 6.28401 26.755 6.27408 27.181 6.25471C27.6263 6.23536 28.004 6.21646 28.3138 6.1971V6.77815ZM11.3099 6.77815C9.68306 6.77815 8.76534 7.10133 8.10681 8.01155C7.44828 8.92188 7.11951 10.2975 7.11951 12.1375C7.11953 13.1252 7.24471 14.0452 7.49646 14.8973C7.72885 15.7494 8.1939 16.4369 8.89099 16.9598C9.56889 17.4827 10.5572 17.7449 11.8549 17.7449H13.1488V9.27718C13.1488 8.56054 13.0902 8.03711 12.974 7.70784C12.8771 7.35926 12.6546 7.12678 12.306 7.01057C11.9769 6.87503 11.9488 6.79753 11.3099 6.77815Z" fill="#273751"/>
</svg>
