<svg width="70" height="70" viewBox="0 0 70 70" fill="none" xmlns="http://www.w3.org/2000/svg">
<rect x="2" y="2" width="66" height="66" rx="9" stroke="#2A446F" stroke-width="4"/>
<path d="M35.9717 34.0557L39.6533 29.5156L50.4189 16.5156H58.1885L44.4307 32.8604L58.8994 53.4844H51.333L40.2217 37.4785L35.9717 41.9814V53.4844H29.2256V39.6973H24.5576C21.6969 39.6973 19.2679 39.2402 17.2705 38.3262C15.2562 37.4121 13.7243 36.1003 12.6748 34.3906C11.6253 32.681 11.1006 30.6328 11.1006 28.2461C11.1006 25.9779 11.6253 23.9635 12.6748 22.2031C13.7243 20.4258 15.2562 19.0378 17.2705 18.0391C19.2679 17.0234 21.6969 16.5156 24.5576 16.5156H35.9717V34.0557ZM24.5576 21.5938C22.8818 21.5938 21.5277 21.9069 20.4951 22.5332C19.4626 23.1595 18.7093 23.9889 18.2354 25.0215C17.7445 26.0371 17.499 27.1289 17.499 28.2969C17.499 29.5326 17.7445 30.6328 18.2354 31.5977C18.7093 32.5456 19.4626 33.2904 20.4951 33.832C21.5277 34.3737 22.8818 34.6445 24.5576 34.6445H29.2256V21.5938H24.5576Z" fill="#273751"/>
</svg>
